<?xml version="1.0" encoding="UTF-8" standalone="no"?>
<!DOCTYPE svg PUBLIC "-//W3C//DTD SVG 1.1//EN" "http://www.w3.org/Graphics/SVG/1.1/DTD/svg11.dtd">
<svg width="100%" height="100%" viewBox="0 0 400 400" version="1.1" xmlns="http://www.w3.org/2000/svg" xmlns:xlink="http://www.w3.org/1999/xlink" xml:space="preserve" xmlns:serif="http://www.serif.com/" style="fill-rule:evenodd;clip-rule:evenodd;stroke-linejoin:round;stroke-miterlimit:2;">
    <g transform="matrix(0.511316,0,0,0.877067,-142.901,-241.416)">
        <rect x="279.476" y="275.254" width="782.296" height="456.065" style="fill:rgb(224,242,254);"/>
    </g>
    <g transform="matrix(1,0,0,1,-451.942,-350.452)">
        <clipPath id="_clip1">
            <path d="M752.034,603.374L640,658.812L662.175,703.625L774.209,648.188L752.034,603.374Z"/>
        </clipPath>
        <g clip-path="url(#_clip1)">
            <g opacity="0.1">
                <path d="M731.666,669.027C731.922,668.798 732.699,668.232 733.393,667.769C736.636,665.605 738.086,662.781 737.04,660.668C736.463,659.501 732.565,658.192 730.249,658.388C729.399,658.46 728.583,658.497 728.436,658.471C728.289,658.445 727.626,658.65 726.963,658.928C726.258,659.223 725.389,659.427 724.87,659.42C724.382,659.414 723.454,659.553 722.807,659.73C721.293,660.144 721.359,660.131 720.438,660.176C719.882,660.22 719.333,660.322 718.798,660.48C717.966,660.739 716.109,660.877 715.798,660.703C715.55,660.565 714.262,661.613 714.066,662.113C713.968,662.363 713.829,662.596 713.757,662.632C713.604,662.707 711.662,662.005 710.592,661.488C709.128,660.781 708.696,660.696 708.257,661.029C708.026,661.204 707.867,661.407 707.903,661.481C708.036,661.749 707.544,663.033 707.317,663.011C707.188,662.999 707.126,663.075 707.178,663.18C707.23,663.285 707.162,663.426 707.027,663.493C706.892,663.559 706.77,664.099 706.757,664.692C706.743,665.286 706.623,665.797 706.489,665.829C706.356,665.862 706.34,665.947 706.455,666.019C706.57,666.09 706.712,666.071 706.772,665.975C706.887,665.79 707.006,666.356 707.176,667.909C707.269,668.754 707.657,669.789 708.267,670.826C708.597,671.386 709.493,671.936 709.983,671.88C710.706,671.797 711.982,671.186 712.007,670.91C712.02,670.774 712.121,670.672 712.233,670.682C712.344,670.693 712.445,670.593 712.457,670.462C712.469,670.331 712.621,670.153 712.793,670.068C712.965,669.983 713.427,669.489 713.819,668.972L714.531,668.031L715.257,668.26C715.657,668.386 716.044,668.459 716.118,668.423C716.192,668.386 716.632,668.471 717.095,668.612C717.558,668.753 718.024,668.825 718.13,668.773C718.237,668.721 718.624,668.791 718.991,668.93C719.614,669.165 721.016,669.325 723.48,669.442C724.047,669.469 724.694,669.54 724.917,669.598C725.14,669.657 725.421,669.656 725.541,669.597C725.661,669.538 726.07,669.545 726.45,669.614C726.83,669.683 728.05,669.622 729.161,669.48C730.273,669.338 731.157,669.296 731.126,669.388C731.095,669.48 731.099,669.531 731.135,669.5C731.171,669.469 731.41,669.257 731.666,669.027ZM728.369,666.434C727.059,666.542 723.319,666.339 720.918,666.029C719.945,665.903 719.08,665.834 718.996,665.876C718.912,665.918 718.813,665.89 718.775,665.814C718.738,665.739 717.984,665.531 717.1,665.352C715.129,664.954 714.883,664.655 716.085,664.113C716.209,664.057 716.231,663.961 716.134,663.9C715.911,663.761 716.181,663.615 716.507,663.696C716.932,663.804 717.985,663.695 717.777,663.565C717.49,663.385 718.64,663.096 720.099,662.981C720.867,662.912 721.629,662.789 722.379,662.613C723.856,662.234 726.035,661.944 726.12,662.116C726.159,662.195 726.121,662.419 726.035,662.613C725.911,662.892 725.961,663.025 726.273,663.248C727.052,663.806 728.137,663.86 728.185,663.343C728.219,662.975 727.382,661.91 727.239,662.14C727.174,662.244 727.059,662.205 726.983,662.051C726.795,661.672 728.035,661.23 729.709,661.079C731.233,660.942 734.619,661.853 734.666,662.413C734.701,662.842 734.085,663.632 733.74,663.599C733.595,663.585 733.579,663.633 733.702,663.709C734.381,664.135 730.173,666.285 728.369,666.434ZM729.938,665.762C729.919,665.723 729.754,665.704 729.571,665.721C729.381,665.739 729.323,665.805 729.437,665.876C729.627,665.995 730.01,665.908 729.938,665.762ZM726.304,662.035C726.257,661.932 726.302,661.809 726.405,661.761C726.51,661.709 726.586,661.773 726.574,661.902C726.562,662.032 726.516,662.155 726.473,662.177C726.429,662.198 726.353,662.135 726.304,662.035ZM709.879,668.713C709.361,668.29 709.07,666.969 709.109,665.216C709.124,664.563 709.037,664.02 708.916,664.008C708.779,663.985 708.66,663.901 708.593,663.78C708.537,663.666 709.027,663.749 709.682,663.965C710.337,664.181 710.867,664.47 710.859,664.608C710.852,664.745 710.882,664.763 710.928,664.647C710.973,664.531 711.274,664.516 711.597,664.614L712.183,664.793L712.098,665.594C712.051,666.034 711.917,666.445 711.801,666.508C711.684,666.571 711.581,666.784 711.571,666.981C711.554,667.333 710.7,668.838 710.436,668.982C710.36,669.022 710.11,668.902 709.879,668.713ZM702.581,676.456C704.492,675.094 705.514,671.576 704.558,669.645C704.041,668.6 702.579,667.812 701.239,667.856C700.051,667.895 700.267,667.856 699.056,668.249C697.722,668.682 696.165,669.057 695.757,669.045C694.872,669.018 693.802,669.151 692.826,669.409C692.237,669.564 691.608,669.615 691.427,669.521C691.138,669.372 690.944,669.479 689.83,670.407C687.608,672.257 686.855,672.762 686.721,672.491C686.656,672.359 686.522,672.292 686.423,672.341C686.324,672.39 686.184,672.31 686.112,672.165C685.812,671.559 684.406,670.788 683.23,670.586C681.686,670.32 680.217,670.371 679.913,670.701C679.606,671.034 679.702,671.962 680.151,673.009C680.354,673.483 680.511,673.963 680.501,674.075C680.468,674.429 680.98,676.006 681.369,676.75C681.995,677.946 682.518,678.756 682.568,678.606C682.595,678.528 682.833,678.681 683.098,678.947C683.818,679.67 684.399,679.518 684.887,678.477C685.108,678.004 685.582,677.371 685.94,677.07C686.298,676.769 686.799,676.319 687.053,676.07C687.694,675.442 687.647,675.441 688.517,676.102C688.979,676.453 689.589,676.701 690.008,676.709C690.651,676.722 693.15,677.02 695.901,677.412C698.932,677.843 701.063,677.538 702.581,676.456ZM698.493,674.573C697.055,674.587 696.353,674.543 696.158,674.428C696.051,674.365 695.751,674.302 695.492,674.287C694.111,674.208 690.949,673.782 690.888,673.667C690.849,673.594 690.939,673.474 691.087,673.4C691.236,673.327 691.402,673.358 691.457,673.469C691.526,673.609 691.606,673.562 691.715,673.315C691.892,672.915 693.834,672.144 694.156,672.346C694.258,672.41 694.535,672.367 694.77,672.251C695.006,672.134 695.277,672.088 695.373,672.148C695.469,672.208 695.822,672.184 696.157,672.094C696.515,671.998 696.758,672.033 696.744,672.179C696.712,672.533 697.605,673.011 698.106,672.907C698.425,672.842 698.532,672.661 698.54,672.175C698.55,671.595 698.624,671.507 699.277,671.298C700.457,670.921 702.046,670.899 702.223,671.258C702.385,671.584 701.86,672.845 701.283,673.519C700.841,674.036 699.443,674.564 698.493,674.573ZM683.329,675.762C682.895,675.361 682.581,674.552 682.525,673.69L682.471,672.858L683.697,673.363C685.078,673.932 685.584,674.55 684.936,674.876C684.714,674.988 684.45,675.217 684.35,675.387C684.074,675.851 683.61,676.022 683.329,675.762ZM711.799,671.529C711.643,671.541 711.491,671.625 711.461,671.715C711.431,671.804 711.559,671.794 711.744,671.693C711.949,671.581 711.97,671.516 711.799,671.529ZM764.301,636.948C765.973,635.247 766.723,633.823 766.348,633.065C766.255,632.878 766.207,632.643 766.241,632.544C766.578,631.541 764.479,630.421 761.847,630.199C761.214,630.146 760.489,629.929 760.236,629.718C759.551,629.146 756.861,629.555 755.841,630.387C755.449,630.707 754.619,631.159 753.995,631.391C753.253,631.67 752.515,631.959 751.781,632.258C751.186,632.503 750.221,632.819 749.636,632.962C748.751,633.177 748.388,633.373 747.482,634.12C746.882,634.615 745.933,635.314 745.372,635.673C744.812,636.033 744.257,636.5 744.14,636.712C743.907,637.135 742.375,637.627 742.107,637.365C742.028,637.288 741.858,637.277 741.73,637.34C741.602,637.403 741.346,637.387 741.16,637.304C740.824,637.154 739,637.111 738.427,637.24C737.628,637.421 736.789,637.916 736.667,638.278C736.299,639.381 736.37,639.834 737.013,640.46C737.433,640.87 737.891,641.644 738.482,642.942C739.227,644.579 739.374,644.802 739.596,644.634C739.971,644.349 739.916,643.432 739.47,642.499L739.079,641.683L739.695,642.276C740.504,643.055 740.593,643.259 740.605,644.354C740.617,645.505 740.654,645.58 740.983,645.118C741.195,644.821 741.365,644.782 741.834,644.923C742.197,645.032 742.409,645.009 742.388,644.862C742.32,644.371 742.97,642.522 743.408,641.964C743.658,641.645 743.908,641.136 743.965,640.833L744.068,640.282L744.528,640.755C744.781,641.015 745.21,641.218 745.481,641.206C745.752,641.194 745.999,641.236 746.03,641.299C746.284,641.813 750.191,641.909 751.167,641.426C751.31,641.355 751.417,641.402 751.405,641.53C751.393,641.66 751.478,641.661 751.595,641.533C751.711,641.406 752.302,641.266 752.908,641.222L755.042,641.066C755.61,641.023 756.683,640.799 757.425,640.568C758.168,640.336 759.264,640.002 759.861,639.826C761.641,639.3 762.601,638.678 764.301,636.948ZM756.78,638.006C756.292,637.992 753.254,638.343 751.633,638.602C749.722,638.906 747.845,638.854 746.446,638.458L745.833,638.284L746.476,637.613C747.473,636.573 749.483,635.472 750.928,635.174C751.678,635.019 752.503,634.704 753.037,634.369C753.607,634.011 754.124,633.824 754.512,633.831C754.87,633.838 755.021,633.787 754.887,633.703C754.579,633.51 756.728,632.721 757.516,632.737C758.085,632.749 758.099,632.765 757.888,633.167C757.615,633.684 758.032,634.233 758.971,634.593C759.821,634.918 759.975,634.543 759.51,633.277L759.171,632.355L760.945,632.501C762.464,632.627 763.897,633.087 764.11,633.517C764.193,633.684 763.242,634.769 762.465,635.394C761.67,636.034 757.341,638.023 756.78,638.006ZM740.946,640.901C740.37,640.283 739.944,639.571 740.104,639.492C740.268,639.411 741.208,639.495 741.791,639.644L742.359,639.788L742.113,640.521C741.777,641.529 741.587,641.59 740.946,640.901ZM730.207,650.087C730.762,649.501 731.334,648.931 731.924,648.38C732.464,647.882 732.794,647.419 732.759,647.208C732.724,646.954 732.709,646.698 732.715,646.442C732.735,645.851 732.138,644.256 731.709,643.751C731.37,643.352 729.085,642.475 728.779,642.626C728.703,642.664 727.846,642.534 726.875,642.337C725.033,641.964 722.412,641.849 721.44,642.099C718.843,642.768 716.151,643.767 715.912,644.151C715.813,644.311 715.647,644.356 715.498,644.263C715.355,644.173 715.258,644.197 715.27,644.319C715.282,644.435 714.953,644.76 714.537,645.04C713.027,646.06 711.946,646.883 710.799,647.887C709.26,649.234 709.126,649.398 709.197,649.857C709.248,650.184 709.167,650.254 708.687,650.3C708.373,650.33 707.618,650.573 707.008,650.84C706.398,651.108 705.561,651.319 705.148,651.311C704.357,651.294 703.529,651.781 703.425,652.324C703.321,652.864 703.933,654.922 704.239,655.061C704.544,655.198 704.984,655.751 706.04,657.321C706.403,657.861 706.852,658.319 707.037,658.339C707.222,658.359 707.297,658.414 707.204,658.462C707.111,658.51 707.169,658.595 707.333,658.651C707.55,658.725 707.787,658.601 708.212,658.189C708.833,657.589 709.064,657.017 709.245,655.636C709.386,654.56 710.065,654.177 711.376,654.436C711.866,654.533 712.325,654.584 712.395,654.55C712.465,654.515 712.901,654.602 713.364,654.742C713.827,654.883 714.307,654.949 714.431,654.888C714.555,654.827 714.687,654.839 714.724,654.914C714.805,655.077 715.903,655.047 716.788,654.857C717.138,654.781 718.038,654.682 718.788,654.635C719.538,654.589 720.419,654.458 720.747,654.345C721.075,654.231 721.458,654.178 721.6,654.226C721.742,654.274 722.432,653.98 723.143,653.567C723.926,653.113 724.464,652.89 724.517,652.998C724.613,653.192 724.577,653.206 727.406,651.89C729.053,651.124 729.519,650.823 730.207,650.087ZM720.757,651.729C720.375,651.799 719.989,651.851 719.602,651.883C719.362,651.895 718.392,652.02 717.446,652.161C716.5,652.301 715.693,652.35 715.653,652.27C715.614,652.19 715.337,652.177 715.038,652.241C714.653,652.307 714.26,652.314 713.873,652.262C713.531,652.208 713.05,652.197 712.804,652.236C712.015,652.361 711.618,652.058 712.013,651.63C713.969,649.516 717.429,647.216 719.566,646.61C720.052,646.472 720.65,646.255 720.895,646.129C721.14,646.002 721.452,645.921 721.589,645.95C721.727,645.978 722.335,645.885 722.941,645.742C724.126,645.463 724.924,645.486 724.819,645.796C724.784,645.902 724.871,645.862 725.013,645.709C725.177,645.53 725.48,645.491 725.847,645.6C726.164,645.694 726.88,645.776 727.437,645.782C727.994,645.788 728.804,645.905 729.238,646.042C729.969,646.272 730.004,646.31 729.718,646.56C729.548,646.708 729.157,647.134 728.849,647.507C728.38,648.075 727.739,648.46 724.883,649.892C723.009,650.832 721.152,651.658 720.757,651.729ZM724.389,647.586C724.298,646.619 723.503,646.062 723.001,646.614C722.714,646.929 722.734,647.012 723.236,647.599C723.81,648.271 724.453,648.264 724.389,647.586ZM719.818,647.154C719.705,646.948 719.642,646.927 719.655,647.099C719.668,647.255 719.751,647.407 719.841,647.437C719.93,647.468 719.92,647.34 719.818,647.154ZM705.985,653.793C705.977,653.674 706.065,653.751 706.18,653.964C706.296,654.177 706.485,654.361 706.603,654.372C706.72,654.384 706.693,654.252 706.543,654.079C706.391,653.903 706.358,653.721 706.471,653.665C706.582,653.61 706.728,653.664 706.796,653.785C706.864,653.905 706.907,653.837 706.89,653.634C706.869,653.386 706.965,653.275 707.184,653.296C707.442,653.321 707.461,653.546 707.277,654.387L707.044,655.447L706.522,654.729C706.234,654.334 705.993,653.913 705.985,653.793ZM701.744,664.071C702.813,662.673 703.09,661.929 703.021,660.648C702.924,658.871 702.09,657.667 700.668,657.249C700.304,657.142 699.171,656.794 698.15,656.475C697.019,656.121 695.682,655.892 694.727,655.889C693.865,655.885 693.099,655.86 693.024,655.833C692.595,655.678 689.549,655.882 688.259,656.152C687.049,656.406 684.317,657.686 683.072,658.583C681.527,659.697 680.344,659.835 679.267,659.027C678.813,658.686 678.138,658.313 677.766,658.198C677.395,658.083 677.042,657.893 676.983,657.777C676.781,657.385 675.547,657.268 675.033,657.592C674.574,657.882 674.559,658.028 674.82,659.755C674.974,660.774 675.211,661.97 675.346,662.414C675.481,662.857 675.6,663.569 675.609,663.997C675.619,664.424 675.846,665.285 676.115,665.91C676.588,667.01 676.624,667.045 677.275,667.048C677.879,667.051 678.023,666.974 678.726,666.269C679.155,665.839 679.516,665.379 679.528,665.246C679.54,665.114 679.939,664.717 680.414,664.363C681.254,663.738 681.301,663.728 682.034,664.019C683.146,664.461 683.582,664.598 684.377,664.759C684.77,664.838 685.68,665.079 686.397,665.295C687.115,665.51 688.067,665.703 688.512,665.724C689.356,665.763 690.663,665.956 691.543,666.171C695.823,667.221 699.991,666.363 701.744,664.071ZM697.655,662.757C697.078,662.805 696.279,662.943 695.881,663.065C695.217,663.268 692.753,663.322 692.392,663.141C692.091,662.991 690.239,662.669 689.455,662.631C689.016,662.61 688.527,662.555 688.369,662.51C688.094,662.431 686.203,661.945 684.99,661.641L684.417,661.497L685.39,660.884C685.945,660.534 686.493,660.302 686.667,660.344C686.846,660.386 686.981,660.328 686.993,660.204C687.024,659.869 689.852,659.376 691.755,659.374C692.267,659.372 692.779,659.35 693.289,659.307L693.928,659.243L693.66,659.718C693.512,659.979 693.43,660.27 693.476,660.364C693.586,660.586 694.279,660.822 694.5,660.712C694.594,660.666 694.832,660.7 695.028,660.788C695.716,661.095 696.072,660.689 695.677,660.047L695.32,659.468L695.968,659.471C696.604,659.474 696.862,659.639 696.669,659.92C696.616,659.999 696.662,659.986 696.773,659.893C697.064,659.646 699.932,660.658 700.038,661.045C700.117,661.332 699.423,662.254 698.9,662.559C698.794,662.623 698.233,662.71 697.655,662.757ZM737.837,636.868C737.682,636.88 737.53,636.963 737.5,637.053C737.47,637.143 737.597,637.133 737.783,637.032C737.988,636.919 738.009,636.855 737.837,636.868ZM726.703,636.178C727.869,635.29 728.612,633.155 728.231,631.784C728.202,631.683 728.185,631.578 728.179,631.473C728.186,631.21 727.225,629.276 727.203,629.51C727.189,629.657 727.044,629.607 726.861,629.392C726.428,628.884 724.942,628.386 724.298,628.534C724.009,628.6 723.601,628.614 723.392,628.565C722.726,628.408 720.719,628.72 719.477,629.174C718.815,629.415 718.042,629.635 717.759,629.662C716.694,629.763 715.423,630.424 713.738,631.752C711.861,633.232 711.346,633.908 711.512,634.672C711.578,634.974 711.493,635.24 711.3,635.335C710.937,635.515 709.298,634.905 709.108,634.52C709.039,634.381 708.773,634.302 708.517,634.343C708.261,634.385 707.896,634.385 707.708,634.343C707.519,634.301 707.155,634.367 706.899,634.49C706.528,634.668 706.345,634.609 705.989,634.197C705.39,633.503 703.887,632.476 703.223,632.306C699.889,631.454 699.216,631.509 696.118,632.881C694.615,633.546 690.931,636.02 690.463,636.677C690.197,637.05 689.372,637.233 689.402,636.91C689.417,636.752 689.221,636.823 688.832,637.115C688.251,637.553 687.712,637.643 687.007,637.42C685.954,637.086 684.04,636.919 683.811,637.14C683.063,637.862 683.625,639.776 685.023,641.266C686.054,642.365 686.617,643.548 686.172,643.682C685.946,643.751 685.879,643.929 685.972,644.212C686.09,644.568 686.198,644.597 686.617,644.385C686.894,644.245 687.418,644.052 687.781,643.957C688.462,643.779 689.089,643.134 689.226,642.47C689.265,642.281 689.512,642.02 689.774,641.89C690.041,641.758 690.164,641.6 690.054,641.531C689.461,641.159 691.133,641.249 692.401,641.657C693.578,642.035 694.849,642.018 698.279,641.58C702.86,640.994 703.714,640.649 704.381,639.115C704.643,638.513 706.083,637.113 706.348,637.203C706.383,637.215 706.996,638.361 707.711,639.749C708.426,641.138 709.046,642.216 709.09,642.146C709.134,642.075 709.395,642.085 709.671,642.168C710.325,642.365 710.981,641.804 711.448,640.647C711.835,639.688 712.491,639.017 712.768,639.297C712.866,639.396 713.306,639.586 713.745,639.719C714.419,639.923 714.819,639.869 716.294,639.374C717.348,639.021 718.45,638.796 719.062,638.808C720.003,638.827 721.722,638.404 723.551,637.704C723.965,637.546 724.644,637.29 725.059,637.135C725.475,636.98 726.215,636.55 726.703,636.178ZM721.051,634.686C720.436,634.812 719.2,635.062 718.304,635.241C717.408,635.42 716.213,635.705 715.648,635.875C714.689,636.164 713.701,636.1 713.918,635.764C714.257,635.239 716.022,634.077 717.276,633.552C718.966,632.844 719.622,632.788 720.474,633.279C721.221,633.709 721.569,633.581 721.426,632.928C721.305,632.369 721.625,632.258 723.459,632.227C724.666,632.206 725.158,632.377 725.2,632.83C725.238,633.232 722.781,634.331 721.051,634.686ZM700.085,637.836C699.704,637.849 699.302,637.905 699.192,637.959C699.082,638.014 698.816,638.054 698.599,638.049C698.29,638.042 696.817,638.266 696.261,638.405C695.676,638.55 694.588,638.545 694.602,638.397C694.612,638.292 694.534,638.297 694.428,638.409C694.114,638.741 693.48,638.59 693.693,638.233C694.203,637.377 699.061,634.973 699.002,635.606C698.992,635.72 699.091,635.695 699.224,635.552C699.356,635.408 699.553,635.337 699.661,635.394C699.769,635.451 700.065,635.509 700.318,635.524C700.571,635.538 700.817,635.683 700.865,635.845C700.969,636.201 701.663,636.179 701.697,635.819C701.712,635.65 701.847,635.621 702.098,635.733C702.419,635.877 702.441,636.014 702.244,636.642C701.989,637.458 701.391,637.789 700.085,637.836ZM687.323,640.241C687.274,640.142 687.315,640.021 687.413,639.971C687.437,639.961 687.463,639.956 687.489,639.956C687.6,639.956 687.691,640.047 687.691,640.158C687.691,640.229 687.654,640.296 687.592,640.332C687.493,640.381 687.372,640.34 687.323,640.241ZM661.338,665.973C661.282,665.857 661.409,665.728 661.62,665.684C661.831,665.641 662.451,665.213 662.997,664.734C663.543,664.255 664.268,663.631 664.607,663.348C665.634,662.491 665.881,661.792 665.628,660.454C665.315,658.864 664.576,657.388 663.489,656.185C662.243,654.824 662.023,654.744 659.873,654.868C659.455,654.893 658.74,654.974 658.284,655.049C657.829,655.124 657.347,655.167 657.213,655.144C656.765,655.069 653.429,656.056 652.43,656.559C651.888,656.833 651.25,657.272 651.011,657.535C650.728,657.838 650.414,658.111 650.076,658.351C649.801,658.535 649.436,658.96 649.265,659.293C648.927,659.954 648.631,660.188 648.491,659.905C648.442,659.806 648.281,659.785 648.132,659.858C647.984,659.931 647.829,659.923 647.787,659.84C647.746,659.756 647.341,659.75 646.888,659.827C646.397,659.91 645.567,659.794 644.834,659.539C643.751,659.162 643.5,659.156 642.738,659.491C641.587,659.996 641.301,660.513 641.546,661.645C641.719,662.444 641.839,662.642 642.413,663.082C642.992,663.527 643.245,663.95 644.352,666.331C645.052,667.837 645.698,669.221 645.789,669.408C645.988,669.82 646.896,670.123 647.313,669.917C647.479,669.835 647.802,669.278 648.031,668.679C648.259,668.081 648.729,667.327 649.074,667.005C649.418,666.683 649.667,666.351 649.626,666.267C649.584,666.184 649.652,666.066 649.776,666.006C649.9,665.946 650.085,665.534 650.188,665.09L650.374,664.284L650.967,664.646C651.293,664.846 651.904,665.136 652.323,665.291C653.181,665.609 653.357,665.803 652.961,665.999C652.812,666.073 652.771,666.293 652.871,666.494C653.028,666.813 653.134,666.8 653.769,666.387C654.443,665.947 654.575,665.944 655.889,666.332C657.626,666.845 658.622,666.841 659.945,666.318C660.511,666.094 661.078,665.972 661.206,666.047C661.374,666.146 661.41,666.124 661.338,665.973ZM657.507,663.026C656.504,663.033 652.889,662.006 652.721,661.666C652.663,661.551 652.529,661.499 652.422,661.552C652.314,661.605 652.212,661.539 652.193,661.406C652.143,661.048 653.428,659.914 654.106,659.718C655.769,659.235 656.396,659.193 656.639,659.547C656.815,659.803 657.012,659.842 657.334,659.683C657.581,659.56 657.72,659.376 657.643,659.273C657.565,659.171 657.64,658.966 657.81,658.819C657.979,658.672 658.109,658.641 658.099,658.75C658.088,658.86 658.219,658.869 658.388,658.77C658.838,658.508 660.903,658.497 661.319,658.754C661.515,658.876 661.867,659.266 662.102,659.62C662.482,660.195 662.487,660.315 662.148,660.722C661.029,662.064 659.114,663.013 657.507,663.026ZM646.261,664.308C645.793,663.482 645.935,663.295 646.847,663.536L647.589,663.732L647.313,664.305C646.945,665.071 646.694,665.072 646.261,664.308ZM687.367,652.261C688.099,651.491 688.361,650.695 688.36,649.237C688.36,648.007 688.3,647.793 687.736,646.995C687.392,646.51 687.119,646.031 687.129,645.931C687.16,645.596 685.452,644.154 684.578,643.779C683.349,643.25 682.811,643.225 680.771,643.598C679.778,643.78 678.475,643.955 677.875,643.986L676.075,644.079C675.685,644.1 675.327,644.037 675.279,643.941C675.176,643.733 674.712,644.108 673.281,645.556C672.707,646.137 671.755,646.887 671.165,647.222C670.576,647.557 669.914,648.075 669.696,648.373C669.31,648.899 669.285,648.904 668.815,648.547C668.549,648.345 668.267,648.059 668.189,647.913C668.097,647.743 667.866,647.736 667.547,647.894C667.273,648.029 666.943,648.075 666.813,647.994C666.298,647.674 665.563,648.044 665.291,648.763C665.043,649.419 665.085,649.683 665.607,650.763C665.727,651.012 665.771,651.327 665.704,651.462C665.619,651.634 665.663,651.701 665.853,651.687C666.002,651.676 666.218,651.858 666.333,652.092C666.448,652.325 666.737,652.704 666.975,652.934C667.378,653.324 667.377,653.338 666.963,653.136C666.478,652.9 666.476,653.06 666.96,653.42C667.464,653.795 668.034,654.55 667.797,654.528C667.677,654.516 667.879,654.732 668.249,655.006C668.617,655.281 668.963,655.596 669.017,655.707C669.072,655.817 669.404,655.995 669.756,656.103C670.385,656.295 670.4,656.289 670.687,655.737C670.847,655.429 670.932,655.076 670.875,654.953C670.704,654.586 671.338,653.705 672.222,653.077C673.002,652.524 673.12,652.502 674.253,652.691C674.915,652.801 675.493,652.965 675.537,653.054C675.582,653.144 675.733,653.161 675.873,653.092C676.013,653.022 676.185,653.013 676.254,653.071C676.436,653.223 678.357,653.434 678.574,653.326C678.675,653.277 678.938,653.349 679.16,653.486C679.381,653.623 679.648,653.693 679.753,653.641C679.859,653.589 680.382,653.624 680.917,653.72C682.068,653.924 685.395,653.518 686.284,653.064C686.681,652.849 687.046,652.579 687.367,652.261ZM682.932,650.363C682.399,650.405 681.489,650.397 680.91,650.345C680.33,650.294 679.283,650.211 678.582,650.163C677.881,650.114 677.005,650.01 676.637,649.932C676.129,649.828 675.618,649.735 675.106,649.653C674.634,649.579 674.195,649.419 674.132,649.298C673.82,648.7 676.428,647.33 677.818,647.361C678.351,647.373 678.93,647.312 679.105,647.226C679.28,647.139 679.547,647.111 679.698,647.162C679.85,647.214 680.262,647.156 680.613,647.035C682.326,646.442 684.139,646.916 685.246,648.246C685.811,648.925 685.899,649.113 685.76,649.35C685.525,649.754 684.076,650.273 682.932,650.363ZM682.757,648.741C682.891,648.342 682.348,647.193 682.086,647.322C681.982,647.374 681.904,647.322 681.915,647.208C681.938,646.964 681.109,647.095 680.943,647.362C680.798,647.595 681.378,648.284 682.092,648.722C682.525,648.988 682.672,648.992 682.757,648.741ZM668.892,651.836C668.64,651.328 668.656,651.297 669.177,651.281C669.796,651.262 669.89,651.353 669.733,651.818C669.541,652.391 669.17,652.399 668.892,651.836ZM648.55,669.067C648.498,668.962 648.4,668.966 648.331,669.077C648.262,669.187 648.224,669.313 648.246,669.357C648.267,669.4 648.366,669.396 648.465,669.347C648.564,669.298 648.602,669.172 648.55,669.067Z" style="fill-rule:nonzero;"/>
            </g>
        </g>
    </g>
    <g transform="matrix(1,0,0,1,-1589.01,-428.101)">
        <clipPath id="_clip2">
            <path d="M1641.02,547.842L1778.53,590.584L1755.97,663.159L1618.46,620.417L1641.02,547.842Z"/>
        </clipPath>
        <g clip-path="url(#_clip2)">
            <g opacity="0.1">
                <path d="M1659.85,632.912C1659.57,632.632 1659.34,632.169 1659.33,631.882C1659.28,631.017 1660.48,627.822 1661.06,627.243C1661.35,626.956 1661.55,626.614 1661.52,626.483C1661.49,626.352 1661.59,626.211 1661.76,626.169C1661.92,626.127 1662.28,625.646 1662.56,625.101C1662.85,624.555 1663.72,623.261 1664.5,622.225C1665.28,621.188 1665.9,620.301 1665.87,620.253C1665.85,620.205 1664.08,619.619 1661.95,618.95L1658.08,617.736L1657.91,617.049C1657.81,616.672 1657.58,616.046 1657.4,615.658C1656.99,614.766 1657.28,612.337 1658.13,609.698C1658.86,607.413 1659.49,606.641 1661.8,605.223C1665.14,603.173 1666.15,602.86 1670.66,602.474C1670.93,602.452 1671.85,602.339 1672.73,602.225C1676.91,601.673 1682.64,602.818 1685.9,604.859C1687.12,605.62 1687.47,605.982 1688.1,607.122C1688.51,607.869 1688.98,608.679 1689.14,608.923C1689.97,610.148 1692.73,615.118 1692.77,615.433C1692.79,615.633 1692.91,616.196 1693.03,616.686C1693.59,618.879 1693.47,621.311 1692.77,621.872C1692.66,621.965 1692.36,622.47 1692.11,622.996C1691.86,623.521 1691.34,624.204 1690.95,624.513C1690.27,625.052 1688.65,628.041 1688.77,628.517C1688.8,628.628 1688.71,628.683 1688.57,628.641C1688.4,628.587 1688.26,628.939 1688.08,629.853C1687.73,631.718 1686.6,633.411 1685.86,633.18C1685.56,633.087 1685.35,633.126 1685.39,633.27C1685.43,633.41 1685.28,633.468 1685.06,633.4C1684.03,633.082 1684.16,629.102 1685.26,627.271C1685.59,626.723 1686.08,626.014 1686.36,625.694C1687.44,624.478 1686.8,624.04 1683.55,623.77C1681.87,623.629 1681.84,623.635 1681.71,624.285C1681.63,624.647 1681.33,625.772 1681.05,626.787C1680.57,628.483 1680.45,628.687 1679.65,629.342C1678.81,630.032 1678.75,630.153 1677.75,633.21L1676.72,636.366L1675.87,636.612C1674.78,636.924 1673.7,636.276 1673.64,635.276C1673.59,634.476 1674.52,631.777 1675.65,629.422C1676.13,628.414 1676.62,627.353 1676.72,627.065C1676.83,626.776 1677.18,626.169 1677.49,625.716C1678.17,624.732 1678.61,623.439 1678.3,623.341C1678.18,623.303 1677.36,623.173 1676.5,623.054C1675.17,622.87 1674.87,622.906 1674.58,623.281C1674.38,623.526 1674.06,623.737 1673.86,623.75C1673.57,623.769 1673.37,624.209 1672.8,626.045C1671.87,629.042 1671.86,629.064 1671.67,629.006C1671.58,628.978 1671.06,629.815 1670.5,630.865C1669.94,631.915 1669.4,632.745 1669.29,632.711C1669.17,632.676 1669.11,632.745 1669.14,632.865C1669.17,632.984 1668.93,633.116 1668.61,633.157C1667.89,633.248 1666.86,632.625 1666.62,631.95C1666.44,631.461 1667.09,628.96 1667.44,628.776C1667.54,628.72 1667.73,628.473 1667.85,628.228C1667.97,627.983 1668.45,627.216 1668.93,626.523C1669.61,625.529 1669.85,624.982 1670.04,623.934C1670.17,623.203 1670.33,622.411 1670.4,622.173C1670.48,621.868 1670.35,621.668 1669.95,621.491C1669.42,621.259 1669.37,621.297 1669.14,622.031C1668.91,622.752 1667.27,625.184 1665.88,626.845C1665.57,627.215 1664.83,628.388 1664.23,629.452C1663.63,630.516 1662.87,631.871 1662.54,632.463C1661.75,633.852 1660.9,633.994 1659.85,632.912ZM1673.78,622.873C1673.79,622.851 1673.79,622.829 1673.79,622.806C1673.79,622.707 1673.73,622.618 1673.63,622.589C1673.5,622.551 1673.43,622.634 1673.47,622.774C1673.5,622.914 1673.57,623.041 1673.62,623.057C1673.68,623.073 1673.75,622.991 1673.78,622.873ZM1677.78,618.657C1678.78,618.764 1680.31,618.903 1681.19,618.965C1682.07,619.027 1684.09,619.239 1685.67,619.436C1687.25,619.634 1688.63,619.755 1688.72,619.705C1689.01,619.554 1688.89,617.66 1688.55,616.932C1688.37,616.557 1688.26,616.149 1688.3,616.026C1688.38,615.755 1687.22,613.617 1686.22,612.207C1685.82,611.643 1685.31,610.778 1685.09,610.286C1684.53,609.043 1684.36,608.909 1682.24,608.076L1680.37,607.34L1680.73,607.935C1680.93,608.261 1681.27,608.583 1681.49,608.65C1681.86,608.766 1682.44,610.066 1682.31,610.493C1682.22,610.756 1681.27,611.036 1680.51,611.021C1680.19,611.015 1679.56,611.056 1679.11,611.112C1678.58,611.177 1678.04,611.081 1677.56,610.838C1677.15,610.632 1676.53,610.312 1676.18,610.127C1675.81,609.936 1675.53,609.614 1675.53,609.378C1675.52,608.767 1676.26,607.934 1676.79,607.958C1677.11,607.973 1677.3,607.798 1677.44,607.364C1677.54,607.025 1677.58,606.734 1677.53,606.717C1677.07,606.574 1673.73,606.792 1673.53,606.979C1673.4,607.11 1673,607.2 1672.65,607.178C1672.3,607.156 1671.31,607.22 1670.44,607.319C1669.57,607.418 1668.41,607.543 1667.84,607.596C1667.28,607.648 1666.8,607.769 1666.77,607.864C1666.74,607.959 1666.59,608.002 1666.44,607.959C1665.81,607.777 1662.72,609.655 1661.76,610.799C1660.92,611.804 1660.6,613.057 1661.05,613.629C1661.57,614.306 1675.08,618.364 1677.78,618.657ZM1673.19,609.186C1673.41,609.196 1673.75,609.3 1673.94,609.418C1674.12,609.535 1673.94,609.527 1673.53,609.399C1673.12,609.272 1672.97,609.176 1673.19,609.186ZM1692.83,620.564C1692.83,619.513 1692.67,618.446 1692.52,618.399C1692.27,618.321 1691.87,620.4 1692.08,620.658C1692.48,621.132 1692.84,621.087 1692.83,620.564ZM1629.06,616.099C1628.55,615.125 1628.56,613.873 1629.1,612.143C1629.91,609.529 1630.8,608.125 1635.06,602.762C1635.23,602.556 1635.37,602.293 1635.38,602.179C1635.38,602.065 1635.5,601.942 1635.63,601.907C1635.76,601.871 1636.08,601.376 1636.35,600.806L1636.83,599.769L1636.1,599.274C1633.96,597.842 1633.23,597.75 1632.88,598.866C1632.8,599.129 1632.64,599.318 1632.54,599.286C1632.43,599.253 1632.2,599.47 1632.02,599.768C1631.84,600.066 1631.47,600.557 1631.2,600.86C1630.43,601.719 1629.83,602.785 1628.62,605.441C1626.53,610.014 1625.92,610.709 1624.39,610.22C1623.62,609.971 1623.48,609.836 1623.37,609.191C1623.3,608.783 1623.18,608.394 1623.1,608.328C1622.89,608.148 1623.12,607.592 1623.36,607.669C1623.48,607.705 1623.7,607.322 1623.86,606.817C1624.02,606.313 1624.26,605.836 1624.4,605.757C1624.55,605.679 1624.88,605.104 1625.15,604.479C1625.96,602.565 1628.31,597.882 1628.64,597.49C1629.49,596.499 1629.44,596.33 1628.13,595.97L1626.91,595.635L1626.83,594.685C1626.79,594.163 1626.93,593.194 1627.13,592.533C1627.49,591.394 1627.56,591.306 1628.59,590.865C1629.18,590.609 1629.7,590.304 1629.73,590.187C1629.77,590.07 1630.31,589.747 1630.94,589.468C1631.57,589.19 1632.96,588.535 1634.04,588.014C1637.17,586.505 1639.78,586.243 1643.37,587.076C1644.93,587.437 1645.6,587.69 1646.25,588.169C1648,589.446 1649.12,590.424 1649.62,591.116C1649.9,591.507 1650.78,592.474 1651.57,593.265C1654.28,595.964 1654.71,597.126 1653.95,599.62C1653.65,600.59 1653.53,601.315 1653.65,601.456C1653.79,601.626 1653.77,601.668 1653.58,601.61C1653.43,601.566 1653.26,601.717 1653.18,601.945C1653.04,602.425 1652.6,602.595 1651.99,602.406C1651.71,602.319 1651.49,602.432 1651.35,602.733C1651.23,602.985 1651.22,603.221 1651.34,603.256C1651.45,603.292 1651.41,603.638 1651.25,604.025C1650.43,605.996 1649.85,607.153 1649.59,607.327C1649.44,607.434 1649.34,607.632 1649.37,607.767C1649.49,608.239 1645.92,613.84 1645.28,614.175C1645.08,614.281 1644.6,614.271 1644.21,614.151C1643.1,613.813 1642.83,613.978 1642.68,615.06C1642.61,615.576 1642.7,616.253 1642.88,616.565C1643.15,617.048 1643.14,617.147 1642.82,617.231C1642.59,617.292 1642.44,617.243 1642.44,617.1C1642.43,616.974 1642.31,616.832 1642.15,616.785C1641.81,616.679 1641.58,615.218 1641.8,614.532C1641.99,613.903 1644.68,608.71 1645.05,608.244C1645.2,608.055 1645.39,607.744 1645.46,607.553C1645.54,607.363 1645.91,606.776 1646.28,606.249C1646.66,605.721 1647.15,604.86 1647.39,604.335C1647.86,603.278 1647.9,603.304 1646.05,603.291C1645.32,603.285 1645.28,603.324 1644.93,604.43C1644.74,605.06 1644.46,605.604 1644.32,605.64C1644.18,605.676 1644.02,605.87 1643.96,606.07C1643.89,606.27 1643.56,606.714 1643.22,607.056C1642.27,608.007 1640.33,610.821 1640.02,611.697C1639.87,612.127 1639.69,612.42 1639.63,612.349C1639.57,612.278 1639.19,612.881 1638.78,613.688C1637.83,615.582 1637.25,616.433 1636.98,616.348C1636.86,616.31 1636.77,616.433 1636.78,616.62C1636.8,616.903 1636.7,616.886 1636.2,616.522C1635.33,615.899 1634.91,615.086 1635.01,614.222C1635.11,613.361 1636.56,609.975 1636.94,609.697C1637.32,609.425 1638.22,607.998 1638.42,607.36C1638.51,607.057 1638.7,606.78 1638.84,606.744C1638.98,606.708 1639.14,606.547 1639.19,606.385C1639.24,606.224 1639.47,605.855 1639.71,605.567C1639.95,605.279 1640.19,604.951 1640.24,604.839C1640.3,604.727 1640.55,604.386 1640.82,604.082C1642.12,602.563 1642.12,602.575 1640.63,601.938C1639.09,601.282 1638.99,601.29 1639.14,602.058C1639.36,603.238 1638.58,604.706 1636.33,607.311C1636.13,607.539 1635.4,608.525 1634.71,609.502C1633.54,611.139 1633.45,611.323 1633.62,611.85C1633.88,612.649 1633.55,613.55 1632.93,613.748C1632.52,613.88 1632.38,614.099 1632.22,614.85C1632.1,615.437 1631.82,616.018 1631.46,616.407C1630.96,616.949 1630.78,616.996 1630.09,616.779C1629.65,616.643 1629.19,616.337 1629.06,616.099ZM1646.93,598.742C1648.38,598.749 1649.58,598.517 1649.67,598.209C1649.77,597.878 1645.31,592.911 1644.7,592.682C1644.45,592.587 1644.3,592.456 1644.38,592.391C1644.64,592.162 1642.77,591.435 1641.44,591.25C1639.22,590.941 1637.95,591.19 1634.8,592.543C1633.94,592.911 1633.96,592.994 1634.98,593.419C1635.41,593.597 1635.97,593.905 1636.23,594.104C1636.49,594.303 1637.09,594.657 1637.57,594.892C1638.06,595.127 1638.93,595.681 1639.53,596.124C1641.61,597.679 1644.58,598.731 1646.93,598.742ZM1708.19,636.997C1707.48,636.557 1707.31,636.319 1707.29,635.746C1707.28,635.357 1707.2,634.908 1707.1,634.749C1706.84,634.338 1706.88,633.395 1707.15,633.479C1707.27,633.516 1707.36,633.391 1707.35,633.2C1707.34,633.009 1707.55,632.682 1707.82,632.474C1708.09,632.262 1708.44,631.668 1708.61,631.128C1708.77,630.596 1709.32,629.375 1709.84,628.414L1710.77,626.667L1710.49,625.752C1710.31,625.162 1710.04,624.783 1709.73,624.686C1709.47,624.603 1709.19,624.489 1709.11,624.433C1709.03,624.376 1708.92,624.471 1708.85,624.644C1708.63,625.246 1707.96,626.25 1707.75,626.305C1707.63,626.335 1707.31,626.139 1707.03,625.869C1705.77,624.618 1705.69,622.994 1706.77,620.624C1707.18,619.712 1707.61,618.781 1707.71,618.555C1708.2,617.438 1709.44,616.246 1710.92,615.471C1712.26,614.765 1713.89,614.275 1714.38,614.428C1714.55,614.478 1714.76,614.448 1714.86,614.361C1715.04,614.202 1715.86,614.282 1717.77,614.65C1719.75,615.03 1725.68,618.061 1727.32,619.524C1727.84,619.997 1728.38,620.417 1728.51,620.458C1728.65,620.499 1729.2,620.936 1729.75,621.429C1730.3,621.921 1730.84,622.352 1730.95,622.386C1731.26,622.482 1731.75,624.326 1731.6,624.818C1731.52,625.061 1731.53,625.383 1731.61,625.534C1731.9,626.089 1732.24,628.709 1732.05,628.879C1731.82,629.08 1731.47,628.243 1731.6,627.81C1731.65,627.657 1731.59,627.501 1731.48,627.464C1731.36,627.428 1731.31,627.266 1731.36,627.104C1731.41,626.943 1731.33,626.629 1731.18,626.408C1730.95,626.041 1730.91,626.083 1730.82,626.885C1730.71,627.856 1730.29,628.154 1729.78,627.633C1729.34,627.191 1728.2,627.217 1727.79,627.678C1727.6,627.899 1727.24,628.022 1727.01,627.951C1726.77,627.879 1726.45,627.858 1726.29,627.903C1725.96,627.997 1724.27,632.524 1724.6,632.439C1724.71,632.409 1724.9,632.13 1725.01,631.817L1725.21,631.249L1725.19,631.83L1725.18,632.411L1725.51,631.871C1725.69,631.574 1725.94,631.36 1726.05,631.396C1726.17,631.431 1726.31,631.313 1726.36,631.133C1726.42,630.953 1726.69,630.618 1726.97,630.389C1727.38,630.052 1727.47,629.83 1727.45,629.224C1727.43,628.812 1727.43,628.452 1727.44,628.423C1727.45,628.394 1727.69,628.457 1727.97,628.562C1728.45,628.743 1728.45,628.825 1728.07,629.985C1727.76,630.941 1727.56,631.251 1727.18,631.374C1726.91,631.461 1726.68,631.623 1726.68,631.734C1726.65,632.093 1725.74,632.935 1725.46,632.849C1725.31,632.803 1724.98,633.067 1724.71,633.435C1724.45,633.804 1724.1,634.064 1723.93,634.012C1723.77,633.96 1723.57,634.091 1723.51,634.304C1723.44,634.517 1723.07,635.029 1722.69,635.442C1722.3,635.855 1721.93,636.374 1721.86,636.595C1721.79,636.816 1721.65,637.043 1721.54,637.1C1721.19,637.285 1720.85,638.239 1721.01,638.615C1721.21,639.107 1720.8,639.472 1720.53,639.046C1720.4,638.851 1720.11,638.745 1719.77,638.764C1718.95,638.807 1717.91,638.015 1717.87,637.318C1717.81,636.296 1719.19,633.677 1720.17,632.96C1720.29,632.869 1720.66,632.3 1720.99,631.694C1722.66,628.628 1722.71,627.927 1721.28,627.725C1720.68,627.64 1720.42,627.722 1720.27,628.045C1720.14,628.316 1719.92,628.423 1719.69,628.331C1719.4,628.211 1719.29,628.332 1719.14,628.961C1719.03,629.42 1718.84,629.741 1718.67,629.745C1718.51,629.748 1718.31,629.964 1718.23,630.224C1718.15,630.484 1717.97,630.76 1717.82,630.837C1717.68,630.914 1717.17,631.856 1716.69,632.931C1715.29,636.092 1715.01,636.389 1713.84,636.025C1713.14,635.807 1713.1,635.847 1713.28,636.557C1713.42,637.071 1713.01,637.647 1712.52,637.641C1712.14,637.636 1711.69,636.808 1711.95,636.582C1712.08,636.465 1712.66,634.873 1713.23,633.044C1713.79,631.215 1714.26,629.877 1714.27,630.072C1714.28,630.509 1715.52,628.328 1715.88,627.236L1716.14,626.44L1715.19,626.147L1714.25,625.854L1713.92,627.208C1713.74,627.979 1713.12,629.475 1712.49,630.684C1711.69,632.232 1711.36,633.082 1711.28,633.824C1711.12,635.242 1710.39,636.765 1709.67,637.188C1709.11,637.513 1709,637.501 1708.19,636.997ZM1718.07,622.472C1722.57,623.628 1725.3,623.981 1725.15,623.386C1725.06,623.053 1722.75,621.54 1720.77,620.513C1718.33,619.256 1716.84,618.827 1716.01,619.145C1715.64,619.287 1715.04,619.311 1714.67,619.199C1714.17,619.043 1713.98,619.089 1713.89,619.395C1713.75,619.852 1713.25,620.107 1712.62,620.052C1711.18,619.927 1710.68,620.144 1711.36,620.594C1711.67,620.806 1712.56,621.054 1718.07,622.472ZM1740.27,645.051C1740.37,644.706 1740.73,644.731 1740.82,645.09C1740.85,645.215 1740.72,645.328 1740.52,645.341C1740.31,645.355 1740.21,645.241 1740.27,645.051ZM1740.35,643.965C1739.81,643.291 1739.69,641.623 1740.18,641.587C1740.28,641.58 1740.72,640.583 1741.17,639.37C1741.62,638.158 1742.31,636.635 1742.7,635.986C1743.96,633.933 1744.28,632.835 1743.63,632.806C1743.15,632.784 1742.49,631.895 1742.62,631.461C1742.67,631.311 1742.62,631.162 1742.52,631.13C1742.41,631.097 1742.4,630.619 1742.48,630.066C1742.57,629.513 1742.54,629.032 1742.43,628.997C1741.98,628.855 1742.13,627.638 1742.73,626.578C1743.18,625.791 1743.49,625.498 1744.01,625.374C1744.39,625.285 1745.14,624.779 1745.68,624.251C1746.22,623.723 1746.74,623.314 1746.83,623.342C1746.92,623.371 1747.04,623.265 1747.09,623.108C1747.24,622.597 1749.82,621.346 1751.35,621.031C1755.21,620.244 1758.39,620.97 1760.84,623.2C1761.87,624.128 1764.8,629.488 1765.05,630.878C1765.11,631.218 1765.22,631.579 1765.29,631.68C1765.58,632.062 1765.29,633.644 1764.8,634.428C1764.04,635.639 1763.85,635.695 1762.48,635.11C1761.7,634.776 1761.25,634.675 1761.2,634.82C1761.17,634.944 1760.99,634.998 1760.8,634.942C1760.52,634.855 1760.39,635.141 1759.94,636.826C1759.35,639.019 1758.97,639.668 1757.37,641.151C1756.81,641.673 1756.24,642.25 1756.11,642.435C1755.98,642.62 1755.79,642.745 1755.69,642.713C1755.58,642.681 1755.44,642.841 1755.37,643.069C1755.3,643.297 1755.14,643.51 1755.01,643.542C1754.77,643.604 1752.65,645.818 1752.55,646.111C1752.52,646.206 1752.12,646.523 1751.67,646.817C1750.94,647.29 1750.78,647.309 1750.21,646.983C1749.85,646.781 1749.63,646.581 1749.71,646.539C1749.79,646.496 1749.75,646.272 1749.63,646.041C1749.17,645.155 1750.37,643.391 1754.2,639.324C1757.38,635.946 1757.88,635.258 1757.6,634.711C1757.4,634.344 1757.22,634.266 1756.62,634.285C1756.21,634.297 1755.45,634.246 1754.94,634.171L1754,634.033L1753.8,635.121C1753.59,636.232 1752.48,637.973 1752.07,637.843C1751.96,637.81 1751.83,637.902 1751.78,638.048C1751.74,638.194 1751.28,638.648 1750.77,639.056C1749.83,639.805 1749.41,640.528 1749.83,640.658C1750.12,640.749 1750.55,641.57 1750.36,641.672C1750.28,641.715 1750.21,642.058 1750.2,642.434C1750.19,642.913 1750.13,643.053 1749.99,642.902C1749.87,642.761 1749.8,642.854 1749.78,643.168C1749.77,643.462 1749.63,643.659 1749.43,643.672C1749.25,643.684 1749.04,643.889 1748.96,644.127C1748.89,644.366 1748.73,644.531 1748.62,644.495C1748.5,644.458 1748.36,644.562 1748.31,644.724C1748.2,645.095 1746.57,645.346 1746.2,645.051C1746.04,644.927 1745.95,644.941 1745.98,645.083C1746.02,645.221 1745.96,645.309 1745.86,645.277C1745.55,645.18 1745.32,644.568 1745.45,644.165C1745.62,643.606 1745.28,643.595 1744.44,644.133C1743.67,644.629 1743.2,644.654 1743.32,644.194C1743.36,644.045 1743.24,644.114 1743.05,644.347C1742.72,644.745 1741.8,644.951 1741.19,644.762C1741.04,644.715 1740.66,644.356 1740.35,643.965ZM1743.58,643.398C1743.62,643.28 1743.78,643.224 1743.93,643.273C1744.42,643.423 1745.14,642.559 1744.94,642.071C1744.67,641.429 1744.26,641.436 1743.78,642.089C1743.23,642.837 1743.02,643.458 1743.3,643.545C1743.42,643.582 1743.55,643.515 1743.58,643.398ZM1745.47,640.649C1745.6,640.401 1746.02,639.608 1746.38,638.886C1747.06,637.564 1747.61,636.823 1748.82,635.631C1749.18,635.274 1749.55,634.738 1749.64,634.439C1749.73,634.14 1749.97,633.686 1750.17,633.431C1750.58,632.91 1750.3,632.622 1748.98,632.207C1748.31,631.996 1748.28,632.018 1748.08,632.8C1747.96,633.246 1747.5,634.392 1747.04,635.346C1746.59,636.299 1746.02,637.543 1745.77,638.11C1745.53,638.677 1745.25,639.17 1745.15,639.205C1745.06,639.241 1744.84,639.62 1744.66,640.048C1744.39,640.718 1744.41,640.846 1744.78,640.963C1745.07,641.051 1745.31,640.941 1745.47,640.649ZM1755.21,629.832C1755.85,629.964 1757.09,629.977 1757.97,629.859C1758.85,629.741 1759.66,629.672 1759.77,629.706C1760.13,629.816 1760.15,629.233 1759.81,628.781C1759.63,628.539 1759.51,628.241 1759.55,628.119C1759.59,627.996 1759.19,627.501 1758.66,627.018C1757.33,625.793 1754.56,624.931 1752.94,625.238C1752.34,625.352 1751.55,625.499 1751.18,625.564C1750.21,625.735 1748.13,627.052 1748.31,627.386C1748.39,627.536 1749.38,627.996 1750.51,628.41C1751.64,628.823 1752.59,629.2 1752.62,629.248C1752.65,629.295 1752.98,629.392 1753.37,629.462C1753.75,629.532 1754.58,629.699 1755.21,629.832ZM1724.56,616.495C1724.73,616.481 1724.92,616.546 1724.96,616.64C1725.01,616.732 1724.87,616.744 1724.65,616.665C1724.4,616.578 1724.37,616.511 1724.56,616.495ZM1651.24,585.704C1650.98,585.533 1650.69,585.057 1650.59,584.644C1650.38,583.752 1650.92,581.7 1651.37,581.67C1651.93,581.633 1652.8,580.037 1652.87,578.913C1652.91,578.352 1653.3,576.53 1653.74,574.864C1654.23,572.995 1654.47,571.748 1654.35,571.605C1654.24,571.477 1653.32,571.112 1652.3,570.793C1650.55,570.246 1650.42,570.163 1649.92,569.358C1649.56,568.769 1649.46,568.318 1649.59,567.904C1649.69,567.574 1649.79,567.018 1649.81,566.668C1649.84,566.124 1649.95,566.008 1650.6,565.864C1651.19,565.733 1651.44,565.509 1651.77,564.832C1652,564.356 1652.28,563.995 1652.39,564.03C1652.5,564.064 1652.56,563.978 1652.53,563.838C1652.49,563.698 1652.56,563.615 1652.69,563.653C1652.81,563.692 1652.96,563.569 1653.02,563.38C1653.08,563.19 1653.69,562.67 1654.37,562.224C1655.06,561.777 1655.82,561.263 1656.07,561.082C1656.32,560.901 1657.59,560.192 1658.9,559.507C1660.2,558.822 1661.27,558.171 1661.27,558.061C1661.27,557.95 1661.34,557.943 1661.43,558.045C1661.52,558.147 1661.91,558.169 1662.29,558.093C1663.08,557.94 1664.25,557.855 1664.77,557.912C1664.95,557.933 1665.57,557.976 1666.14,558.007C1668.64,558.143 1673.12,559.978 1674.7,561.512C1676.28,563.049 1678.3,569.76 1678.01,572.506L1677.81,574.389C1677.61,576.331 1676.58,577.634 1675.51,577.3C1674.92,577.116 1674.35,577.498 1674.29,578.119C1674.15,579.561 1674.11,580.772 1674.19,581.215C1674.47,582.868 1672.94,586.711 1671.37,588.333C1670.47,589.253 1670.23,589.717 1670.65,589.689C1670.86,589.675 1670.99,589.775 1670.94,589.913C1670.9,590.05 1670.98,590.133 1671.12,590.097C1671.26,590.06 1671.34,590.131 1671.31,590.253C1671.2,590.595 1670.17,590.458 1669.77,590.048C1669.53,589.822 1669.25,589.647 1668.94,589.535C1668.16,589.292 1667.38,587.973 1667.42,586.951C1667.44,586.446 1667.39,586.01 1667.3,585.982C1667.09,585.918 1664.82,587.688 1664.24,588.366C1663.87,588.797 1663.67,588.834 1662.96,588.614C1661.84,588.265 1661.38,587.209 1661.65,585.601C1661.81,584.624 1661.79,584.495 1661.49,584.778C1661.29,584.963 1660.9,585.248 1660.62,585.41C1660.33,585.573 1660.08,585.773 1660.05,585.855C1660.03,585.937 1659.6,586.062 1659.09,586.133C1658.59,586.204 1657.81,586.395 1657.36,586.558C1656.07,587.025 1655.6,586.669 1655.32,585.031L1655.17,584.128L1653.86,585.163C1652.54,586.213 1652.14,586.295 1651.24,585.704ZM1657.2,581.981C1658.42,581.34 1658.76,580.989 1658.31,580.849C1658.14,580.796 1658.17,580.71 1658.42,580.549C1658.69,580.372 1658.73,580.099 1658.61,579.285C1658.52,578.714 1658.5,577.882 1658.56,577.437C1658.72,576.077 1658.62,575.971 1657.69,576.597C1656.84,577.174 1656.84,577.179 1656.32,579.383C1655.51,582.81 1655.44,583.303 1655.77,582.888C1655.89,582.742 1656.53,582.334 1657.2,581.981ZM1663.09,582.845C1662.79,582.625 1664.16,580.289 1664.84,579.836C1665.51,579.395 1665.8,578.621 1665.92,576.927L1666.04,575.241L1664.34,574.834C1663.4,574.611 1662.58,574.455 1662.52,574.488C1662.34,574.583 1662.13,579.044 1662.27,579.74C1662.44,580.553 1662.45,582.622 1662.29,583.022C1662.22,583.194 1662.11,583.582 1662.05,583.884C1661.95,584.382 1662,584.365 1662.6,583.703C1662.96,583.302 1663.18,582.915 1663.09,582.845ZM1669.04,583.248C1669.08,583.131 1669.01,583.004 1668.88,582.965C1668.76,582.926 1668.69,583.009 1668.72,583.149C1668.76,583.289 1668.83,583.417 1668.88,583.433C1668.93,583.449 1669.01,583.366 1669.04,583.248ZM1665.29,581.392C1665.87,580.799 1666.16,580.105 1665.92,579.834C1665.83,579.735 1665.76,579.844 1665.74,580.075C1665.73,580.307 1665.41,580.785 1665.02,581.137C1664.63,581.49 1664.42,581.81 1664.54,581.849C1664.67,581.888 1665,581.683 1665.29,581.392ZM1669.33,581.993C1669.42,581.426 1669.47,581.342 1669.47,581.729L1669.47,582.301L1670.09,581.947C1670.65,581.623 1670.69,581.536 1670.58,580.91C1670.39,579.8 1670.59,578.201 1670.99,577.687C1671.41,577.157 1671.12,576.881 1669.67,576.426C1668.98,576.207 1668.87,576.227 1669.01,576.558C1669.1,576.773 1669.08,577.03 1668.96,577.129C1668.85,577.228 1668.86,577.34 1668.98,577.378C1669.1,577.416 1669.18,577.915 1669.15,578.487C1669.11,579.058 1669.16,579.604 1669.24,579.7C1669.32,579.795 1669.29,580.192 1669.17,580.581C1668.86,581.593 1668.77,582.695 1669,582.767C1669.11,582.8 1669.26,582.452 1669.33,581.993ZM1659.9,573.559C1659.93,573.473 1659.75,573.339 1659.5,573.262C1659.18,573.162 1659.06,573.229 1659.08,573.5C1659.09,573.708 1659.06,574.039 1659,574.236C1658.9,574.587 1659.76,573.937 1659.9,573.559ZM1673.31,577.788C1673.35,577.67 1673.21,577.523 1673,577.462C1672.68,577.365 1672.67,577.393 1672.88,577.655C1673.21,578.041 1673.23,578.048 1673.31,577.788ZM1671.76,572.266C1672.42,572.388 1673.33,572.454 1673.77,572.412C1674.51,572.344 1674.58,572.276 1674.64,571.625C1674.69,571.022 1674.45,569.815 1674.07,568.779C1674.02,568.633 1673.85,568.081 1673.69,567.55C1673.53,567.02 1673.28,566.546 1673.13,566.497C1672.97,566.449 1672.92,566.343 1673.02,566.263C1673.52,565.824 1670.79,564.186 1668.59,563.613C1667.71,563.382 1666.84,563.15 1666.66,563.098C1665.95,562.89 1663.06,563.035 1662.5,563.305C1662.17,563.463 1661.42,563.815 1660.84,564.088C1659.72,564.608 1659.16,564.949 1657.68,566.026C1657.19,566.387 1656.62,566.772 1656.43,566.882C1655.88,567.191 1655.94,567.263 1657.03,567.593C1657.58,567.763 1659.98,568.582 1662.36,569.415C1667.13,571.085 1669.91,571.93 1671.76,572.266ZM1688.26,596.593C1688.17,596.373 1687.98,596.156 1687.84,596.111C1687.28,595.94 1687.09,594.958 1687.36,593.685C1687.62,592.483 1687.74,592.299 1689.03,591.035C1689.79,590.287 1690.48,589.474 1690.55,589.226C1690.66,588.866 1690.78,588.83 1691.13,589.044C1691.38,589.192 1691.47,589.217 1691.34,589.1C1691.16,588.942 1691.19,588.835 1691.43,588.674C1691.63,588.546 1691.76,588.242 1691.75,587.918C1691.74,587.19 1691.73,587.253 1692.05,584.476C1692.37,581.72 1692.36,581.567 1691.85,581.6C1690.88,581.664 1689.8,580.396 1689.9,579.315C1689.91,579.19 1689.89,578.733 1689.85,578.298C1689.81,577.864 1689.88,577.37 1690.02,577.201C1690.18,576.996 1690.16,576.918 1689.97,576.968C1689.76,577.021 1689.76,576.871 1689.96,576.477C1690.11,576.166 1690.44,575.394 1690.69,574.762C1691.51,572.653 1692.63,571.691 1696.78,569.543C1701.2,567.254 1702.9,567.023 1706.55,568.211C1709.09,569.037 1709.62,569.247 1709.88,569.532C1709.97,569.635 1710.39,569.896 1710.81,570.112C1711.22,570.328 1711.54,570.586 1711.5,570.685C1711.47,570.784 1711.69,571.014 1711.99,571.194C1712.46,571.478 1713.54,572.771 1713.74,573.272C1713.77,573.364 1714.51,574.422 1715.38,575.623C1716.51,577.184 1716.99,578.063 1717.06,578.703C1717.12,579.204 1717.19,579.359 1717.22,579.055C1717.26,578.679 1717.32,578.601 1717.43,578.802C1717.52,578.967 1717.24,580.245 1716.79,581.748L1716,584.403L1714.97,585.126C1714.4,585.523 1713.81,585.888 1713.66,585.937C1713.51,585.986 1713.59,586.088 1713.84,586.167C1714.28,586.306 1714.95,587.401 1714.84,587.783C1714.8,587.894 1714.84,588.319 1714.92,588.73C1715.07,589.519 1714.95,592.648 1714.74,593.329C1714.59,593.832 1715.19,594.841 1715.63,594.812C1715.83,594.799 1715.87,594.867 1715.73,594.985C1715.61,595.092 1715.35,595.565 1715.16,596.035C1714.53,597.617 1714.4,597.735 1713.55,597.505C1712.28,597.163 1711.44,596.159 1711.36,594.899C1711.32,594.303 1711.38,593.742 1711.48,593.651C1711.58,593.56 1711.6,593.403 1711.51,593.302C1711.42,593.201 1711.41,592.691 1711.49,592.168C1711.64,591.18 1711.56,589.209 1711.37,589.149C1711.31,589.13 1711.49,588.457 1711.78,587.653L1712.29,586.191L1711.56,586.175C1710.6,586.154 1710.62,586.125 1710.83,587.189C1711.32,589.776 1710.52,592.777 1708.61,595.473C1707.99,596.337 1707.47,597.176 1707.45,597.337C1707.39,597.775 1706.74,598.711 1706.54,598.648C1706.45,598.618 1706.2,598.674 1706,598.773C1704.98,599.272 1704.71,599.308 1704.49,598.973C1704.38,598.79 1703.9,598.499 1703.44,598.326L1702.61,598.011L1703.22,595.625C1703.86,593.088 1704.66,591.31 1705.25,591.103C1705.54,590.999 1705.57,590.916 1705.4,590.628C1705.27,590.392 1705.34,589.98 1705.62,589.349C1705.89,588.753 1705.98,588.275 1705.88,588.016C1705.74,587.681 1705.76,587.653 1706.02,587.856C1706.19,587.991 1706.36,587.994 1706.4,587.862C1706.44,587.733 1706.33,587.581 1706.15,587.526C1705.68,587.379 1705.56,586.199 1706.01,586.084C1706.27,586.016 1706.26,585.944 1705.98,585.767C1705.62,585.547 1705.62,585.542 1706.03,585.642C1706.81,585.836 1705.91,584.892 1705.04,584.614L1704.27,584.365L1703.84,585.844C1703.51,586.979 1703.3,587.393 1702.91,587.621C1702.47,587.885 1702.4,588.052 1702.33,589.105C1702.29,589.758 1702.3,590.309 1702.37,590.329C1702.44,590.35 1702.26,591.187 1701.99,592.189C1701.45,594.145 1700.74,595.203 1699.26,596.254C1698.88,596.528 1698.43,596.947 1698.26,597.185C1698.1,597.424 1697.82,597.576 1697.66,597.524C1697.49,597.471 1697.32,597.525 1697.28,597.642C1697.15,598.078 1696.16,597.506 1695.71,596.728C1695.29,596.018 1695.28,595.744 1695.58,594.405C1695.77,593.571 1695.92,592.729 1695.91,592.534C1695.89,591.812 1696.49,589.696 1696.72,589.635C1696.86,589.6 1696.96,589.417 1696.95,589.229C1696.93,589.041 1697.22,588.661 1697.58,588.384C1697.95,588.107 1698.4,587.561 1698.6,587.169C1698.79,586.778 1699.03,586.483 1699.13,586.513C1699.28,586.561 1700.01,585.442 1700.2,584.857C1700.24,584.741 1700.32,584.642 1700.43,584.578C1700.52,584.541 1700.74,584.268 1700.92,583.971L1701.24,583.431L1698.5,582.699C1696.99,582.295 1695.7,581.996 1695.63,582.033C1695.36,582.175 1694.73,588.423 1694.98,588.499C1695.06,588.524 1694.99,588.82 1694.83,589.156C1694.67,589.492 1694.62,589.793 1694.72,589.825C1694.83,589.857 1694.66,590.515 1694.34,591.287C1693.82,592.576 1693.25,593.34 1691.75,594.751C1691.49,594.992 1691.19,595.478 1691.07,595.829C1690.81,596.67 1688.55,597.285 1688.26,596.593ZM1698.18,591.614L1699.08,591.21L1699.05,590.125C1699.04,589.528 1699.07,588.899 1699.12,588.727C1699.17,588.554 1699.07,588.372 1698.9,588.315C1698.72,588.26 1698.52,588.406 1698.44,588.643C1698.37,588.877 1698.2,589.035 1698.06,588.992C1697.93,588.95 1697.85,588.991 1697.9,589.084C1697.95,589.176 1697.83,589.461 1697.63,589.716C1697.26,590.182 1696.9,591.909 1697.15,591.98C1697.22,592.001 1697.68,591.836 1698.18,591.614ZM1704.81,592.963C1704.85,592.845 1704.84,592.736 1704.79,592.72C1704.73,592.704 1704.6,592.769 1704.49,592.864C1704.38,592.958 1704.4,593.068 1704.52,593.106C1704.65,593.145 1704.78,593.08 1704.81,592.963ZM1706.72,591.508C1707.58,590.504 1707.93,589.251 1707.39,589.084C1707.29,589.052 1707.25,588.893 1707.3,588.731C1707.35,588.569 1707.29,588.286 1707.17,588.1C1706.99,587.821 1706.9,587.932 1706.68,588.75C1706.53,589.292 1706.48,589.833 1706.57,589.951C1706.76,590.204 1706.48,591.252 1706.17,591.414C1706.03,591.511 1705.92,591.649 1705.87,591.81C1705.71,592.35 1706.13,592.199 1706.72,591.508ZM1699.27,587.495C1699.28,587.473 1699.28,587.45 1699.28,587.427C1699.28,587.328 1699.22,587.241 1699.12,587.215C1699.01,587.178 1698.88,587.245 1698.84,587.362C1698.81,587.48 1698.87,587.606 1698.99,587.642C1699.11,587.678 1699.23,587.612 1699.27,587.495ZM1706.99,586.72C1707.04,586.537 1706.98,586.417 1706.84,586.453C1706.7,586.489 1706.55,586.609 1706.52,586.72C1706.49,586.83 1706.55,586.95 1706.67,586.987C1706.79,587.023 1706.93,586.903 1706.99,586.72ZM1707.28,585.772C1707.36,585.538 1707.33,585.319 1707.22,585.286C1707.12,585.253 1707.02,585.433 1707.01,585.687C1707,585.941 1707.02,586.16 1707.07,586.174C1707.11,586.188 1707.21,586.007 1707.28,585.772ZM1703.6,579.199C1707.06,580.254 1710.15,581.088 1710.93,581.177C1712.33,581.335 1713.37,581.235 1713.46,580.934C1713.52,580.743 1712.05,578.359 1711.83,578.291C1711.75,578.268 1711.6,578.09 1711.5,577.896C1709.47,574.201 1705.66,572.034 1702.15,572.59C1700.39,572.869 1694.75,575.756 1694.51,576.499C1694.48,576.596 1695.17,576.834 1696.04,577.026C1696.91,577.218 1700.31,578.196 1703.6,579.199ZM1736.56,609.501C1736.52,609.425 1736.61,609.102 1736.76,608.783C1737,608.295 1737.12,608.243 1737.52,608.46C1738.1,608.768 1738.03,609.156 1737.34,609.475C1736.82,609.72 1736.67,609.725 1736.56,609.501ZM1731.44,606.534C1731.55,606.17 1731.52,606.13 1731.28,606.331C1730.6,606.909 1730.67,605.816 1731.48,603.09C1731.86,601.81 1732.08,601.387 1732.47,601.155C1732.75,600.992 1733,600.767 1733.03,600.654C1733.07,600.541 1733.72,600.095 1734.49,599.661C1735.85,598.888 1735.88,598.854 1735.95,597.925C1735.99,597.403 1736.21,596.364 1736.43,595.615L1736.82,594.253L1735.96,593.956C1735.48,593.792 1735,593.648 1734.89,593.636C1734.78,593.624 1734.01,593.233 1733.18,592.771C1732.35,592.314 1731.51,591.885 1730.65,591.486C1729.47,590.97 1728.79,590.246 1728.96,589.691C1729.03,589.477 1729.02,589.22 1728.93,589.12C1728.72,588.876 1729.6,586.618 1729.99,586.415C1730.15,586.326 1730.75,586.417 1731.3,586.616L1732.31,586.978L1732.84,586.16C1734.23,584.028 1734.74,583.427 1735.59,582.924C1737.31,581.892 1739.92,581.453 1741.92,581.857C1742.34,581.943 1742.95,582.001 1743.28,581.987C1745.82,581.876 1754.52,584.305 1756.3,585.624C1757.24,586.325 1758.26,587.953 1758.29,588.813C1758.3,589.041 1758.49,589.284 1758.71,589.354C1759.74,589.675 1760.2,592.801 1759.5,594.749C1758.69,597.018 1758.64,597.083 1757.77,597.209C1757.05,597.313 1756.7,597.729 1756.95,598.169C1757.08,598.391 1756.46,601.964 1756.25,602.235C1756.14,602.368 1755.99,603.22 1755.9,604.129C1755.81,605.038 1755.54,606.442 1755.29,607.249L1754.83,608.716L1755.76,608.921C1756.27,609.034 1756.98,609.108 1757.33,609.084C1758.3,609.02 1758.51,609.687 1757.75,610.396C1757.04,611.055 1756.96,611.304 1757.47,611.27C1757.69,611.256 1757.29,611.544 1756.58,611.91C1755.31,612.568 1754.66,612.625 1752.86,612.238C1752.47,612.154 1752.13,611.99 1752.1,611.876C1752.07,611.761 1751.84,611.657 1751.58,611.646C1751.3,611.633 1750.91,611.323 1750.55,610.824C1750,610.043 1750,609.985 1750.45,608.531C1750.78,607.462 1751.11,606.841 1751.6,606.337C1752.17,605.75 1752.27,605.525 1752.22,604.96C1752.19,604.589 1752.16,604.234 1752.17,604.172C1752.19,603.934 1751.78,601.589 1751.7,601.451C1751.59,601.287 1751.25,598.837 1751.24,598.207C1751.23,597.903 1751,597.723 1750.36,597.523C1749.63,597.296 1749.48,597.318 1749.48,597.659C1749.43,599.801 1749.38,599.994 1748.69,600.677C1748.31,601.047 1747.93,601.6 1747.83,601.905C1747.44,603.164 1746.27,605.124 1745.34,606.084C1744.81,606.628 1744.81,607.046 1745.35,607.624C1745.64,607.933 1745.85,608.297 1745.8,608.434C1745.73,608.687 1747.16,609.532 1747.53,609.446C1747.82,609.376 1748.58,610.026 1748.5,610.281C1748.46,610.402 1748.29,610.456 1748.11,610.402C1747.94,610.347 1747.82,610.228 1747.85,610.137C1747.87,610.047 1747.54,609.858 1747.1,609.718C1745.87,609.326 1745.21,608.84 1745.34,608.423C1745.41,608.179 1745.28,608.226 1744.95,608.564C1744.67,608.845 1744.47,609.174 1744.5,609.295C1744.6,609.686 1743.56,610.349 1742.81,610.375C1741.6,610.417 1741.02,610.106 1740.38,609.063L1739.77,608.079L1740.41,606.445C1740.89,605.208 1741.27,604.597 1741.97,603.926C1744.62,601.365 1744.51,601.505 1744.39,600.891C1744.26,600.242 1743.97,600.047 1743.83,600.516C1743.68,601.001 1742.34,601.98 1742.08,601.794C1741.95,601.702 1741.81,601.731 1741.77,601.858C1741.73,601.985 1741.82,602.129 1741.97,602.178C1742.15,602.241 1742.11,602.317 1741.83,602.428C1741.33,602.626 1740.57,603.478 1740.4,604.035C1740.32,604.264 1740.19,604.426 1740.09,604.396C1739.93,604.346 1739.39,605.038 1738.7,606.189C1738.57,606.406 1738.2,606.923 1737.88,607.339C1737.09,608.371 1737.01,607.55 1737.8,606.416C1738.1,605.974 1738.37,605.491 1738.39,605.344C1738.41,605.196 1738.85,604.552 1739.38,603.913C1739.9,603.274 1740.37,602.608 1740.43,602.433C1740.53,602.091 1742.26,600.562 1743.08,600.075C1743.76,599.679 1743.79,599.463 1743.22,599.282C1742.95,599.199 1742.42,598.926 1742.03,598.675C1741.35,598.239 1741.33,598.166 1741.54,597.021C1741.76,595.748 1741.64,595.507 1740.72,595.458C1740.2,595.43 1740.12,595.525 1739.8,596.595C1739.61,597.236 1739.36,598.462 1739.26,599.318C1739,601.402 1737.98,603.005 1736.38,603.847C1735.89,604.107 1735.88,604.126 1736.24,604.444C1736.9,605.019 1736.12,607.245 1735.07,607.798C1734.89,607.89 1733.97,607.746 1733.02,607.477C1731.4,607.016 1731.31,606.963 1731.44,606.534ZM1748.43,598.24L1748.23,597.124C1748.21,597.072 1748.02,597.041 1747.8,597.056C1747.44,597.079 1747.42,597.13 1747.61,597.551C1747.72,597.809 1747.88,598.398 1747.96,598.86C1748.06,599.443 1748.18,599.632 1748.35,599.479C1748.5,599.354 1748.53,598.827 1748.43,598.24ZM1755.89,599.652C1755.97,599.26 1755.94,598.931 1755.8,598.92C1755.67,598.91 1755.65,598.784 1755.77,598.64C1755.88,598.497 1755.89,598.283 1755.79,598.165C1755.68,598.046 1755.68,597.878 1755.78,597.789C1755.88,597.701 1755.78,597.569 1755.54,597.496C1754.88,597.289 1754.8,597.527 1755.11,598.943C1755.44,600.459 1755.67,600.666 1755.89,599.652ZM1745.59,591.835C1748.43,592.561 1750.1,592.877 1751.33,592.918C1752.28,592.951 1753.22,592.99 1753.4,593.005C1753.63,593.024 1753.87,592.723 1754.11,592.101C1754.63,590.739 1754.26,589.917 1752.86,589.304C1750.6,588.32 1747.38,587.422 1744.85,587.073C1744.48,587.022 1743.93,586.942 1743.62,586.896C1742.53,586.729 1739.79,586.756 1738.72,586.944C1737.58,587.144 1735.77,588.185 1735.96,588.534C1736.1,588.809 1739.86,590.443 1740.82,590.647C1741.24,590.736 1743.39,591.271 1745.59,591.835ZM1738.86,589.415C1738.93,589.202 1739.15,589.124 1739.43,589.213C1739.69,589.292 1739.85,589.371 1739.79,589.389C1739.73,589.407 1739.47,589.498 1739.22,589.592C1738.82,589.737 1738.77,589.712 1738.86,589.415ZM1759.28,593.34C1759.13,593.055 1758.85,593.326 1758.94,593.67C1759.01,593.929 1759.06,593.945 1759.2,593.75C1759.29,593.617 1759.33,593.432 1759.28,593.34ZM1757.63,592.717C1757.61,592.526 1757.55,592.561 1757.46,592.806C1757.38,593.028 1757.39,593.17 1757.48,593.121C1757.58,593.072 1757.64,592.89 1757.63,592.717ZM1758.98,592.057C1758.78,591.666 1758.73,591.648 1758.65,591.927C1758.51,592.365 1758.85,593.02 1759.07,592.725C1759.15,592.605 1759.11,592.305 1758.98,592.057ZM1702.76,589.848C1702.85,589.603 1702.92,589.568 1702.93,589.759C1702.94,589.933 1702.88,590.114 1702.79,590.163C1702.69,590.212 1702.68,590.07 1702.76,589.848Z" style="fill:rgb(162,28,175);fill-rule:nonzero;"/>
            </g>
        </g>
    </g>
    <g transform="matrix(1,0,0,1,18.3196,-494.229)">
        <clipPath id="_clip3">
            <rect x="222" y="534" width="85" height="72"/>
        </clipPath>
        <g clip-path="url(#_clip3)">
            <g opacity="0.1">
                <path d="M249.019,604.243C251.127,602.932 252.387,602.44 252.732,602.794C253.894,603.99 260.832,602.417 265.76,599.842C269.631,597.819 271.807,589.435 269.304,586.194C268.986,585.781 268.213,584.171 267.586,582.616C265.535,577.523 261.089,572.53 258.197,572.074C256.703,571.839 253.99,573.632 253.682,575.059C253.527,575.774 253.383,577.636 253.362,579.198L253.324,582.037L252.528,578.63C252.09,576.756 251.51,574.712 251.24,574.087C250.521,572.427 251.278,570.491 252.797,570.105C256.372,569.195 257.752,566.345 257.367,560.66C256.981,554.957 255.536,554.077 245.8,553.615L239.356,553.31L237.781,555.03C236.915,555.976 236.078,556.754 235.922,556.759C235.583,556.773 234.669,560.921 234.496,563.235C234.405,564.449 233.96,565.149 232.785,565.927C230.779,567.255 228.227,570.777 227.912,572.652C227.78,573.442 227.572,574.687 227.451,575.421C227.311,576.269 227.624,577.406 228.31,578.544C229.622,580.718 232.311,587.6 232.311,588.782C232.311,589.251 232.508,589.787 232.75,589.971C232.99,590.156 233.072,590.682 232.93,591.141C232.788,591.599 232.887,591.974 233.148,591.974C233.41,591.974 233.749,592.463 233.902,593.06C234.139,593.983 234.795,595.165 237.238,599.072C237.433,599.385 237.972,600.696 238.435,601.988C239.376,604.613 240.426,605.402 243.634,605.893C245.533,606.183 246.258,605.96 249.019,604.243ZM242.024,598.107C241.087,596.945 241.393,596.7 243.88,596.616L246.286,596.536L245.204,597.662C243.975,598.942 242.828,599.103 242.024,598.107ZM253.883,595.868C252.729,595.533 251.078,595.28 250.214,595.306C248.296,595.367 247.431,594.556 247.431,592.703C247.431,591.767 247.12,591.199 246.494,590.996C245.335,590.621 243.766,586.941 243.766,584.597C243.766,583.638 243.482,582.719 243.136,582.554C241.325,581.693 238.039,570.89 238.524,567.391C238.706,566.077 238.831,564.147 238.802,563.101C238.695,559.256 241.727,557.038 243.844,559.412C245.151,560.877 244.959,562.13 243.597,561.025C242.575,560.194 242.47,560.225 241.764,561.559C240.827,563.332 240.816,564.68 241.732,566.295C242.888,568.34 244.521,567.959 244.885,565.56C245.051,564.461 245.082,563.353 244.954,563.097C244.827,562.84 245.383,562.605 246.192,562.572C247.959,562.503 249.182,562.233 250.412,561.642C252.349,560.712 252.474,560.761 252.474,562.444C252.474,563.529 252.154,564.322 251.557,564.718C251.054,565.052 250.641,565.141 250.641,564.916C250.641,564.69 250.035,565.225 249.294,566.105C248.553,566.985 247.658,567.567 247.305,567.4C245.999,566.779 244.995,570.195 245.298,574.226C245.451,576.252 245.761,578.199 245.987,578.554C246.213,578.908 246.661,580.22 246.983,581.469C248.892,588.877 253.784,594.219 258.014,593.516C260.074,593.174 262.149,591.622 262.387,590.247C262.467,589.792 262.721,588.525 262.954,587.431C263.316,585.735 263.389,585.652 263.456,586.863C263.519,587.981 263.602,588.076 263.848,587.308C264.089,586.556 264.347,586.894 264.977,588.781C265.982,591.791 265.48,593.988 263.594,594.835C262.896,595.148 261.913,595.647 261.409,595.943C260.354,596.563 257.591,596.994 256.635,596.687C255.72,596.407 254.802,596.134 253.883,595.868ZM239.356,591.612C239.118,590.438 239.29,589.888 240.149,589.069C241.538,587.745 241.586,587.749 242.339,589.244C242.91,590.377 242.848,590.605 241.648,591.796C239.97,593.46 239.726,593.44 239.356,591.612ZM262.782,584.592C262.626,584.28 262.717,584.024 262.984,584.024C263.25,584.024 263.469,584.28 263.469,584.592C263.469,584.905 263.378,585.16 263.267,585.16C263.156,585.16 262.938,584.905 262.782,584.592ZM235.864,582.415C235.1,580.812 235.103,580.802 236.572,579.933C238.184,578.981 238.97,579.452 239.247,581.535C239.621,584.342 237.096,584.998 235.864,582.415ZM233.226,575.144C233.226,574.545 234.78,573.272 235.518,573.266C235.97,573.263 235.814,573.641 235.059,574.371C233.885,575.509 233.226,575.787 233.226,575.144ZM246.973,559.04C246.973,558.727 247.179,558.471 247.431,558.471C247.684,558.471 247.89,558.727 247.89,559.04C247.89,559.352 247.684,559.607 247.431,559.607C247.179,559.607 246.973,559.352 246.973,559.04ZM302.469,584.667C305.608,580.785 307,578.659 307,577.744C307,576.404 303.565,568.693 302.968,568.693C302.788,568.693 302.36,567.903 302.015,566.938C300.798,563.532 296.899,561.998 294.083,563.818L292.851,564.615L292.541,561.539C292.353,559.681 292.417,558.184 292.701,557.758C292.961,557.369 293.242,556.286 293.327,555.349C293.465,553.838 293.633,553.667 294.808,553.838C296.257,554.049 300.127,552.889 300.127,552.243C300.127,552.022 300.643,551.549 301.272,551.193C301.902,550.838 302.418,550.158 302.418,549.682C302.418,549.207 302.624,548.819 302.876,548.819C303.494,548.819 303.456,546.93 302.803,545.154C302.296,543.775 300.792,543.271 298.38,543.674C297.253,543.861 293.531,540.693 290.942,537.342L288.359,534L285.584,534.169C284.058,534.263 282.922,534.568 283.059,534.848C283.198,535.131 282.785,535.193 282.129,534.989C280.438,534.464 279.444,535.88 279.663,538.507C279.968,542.174 278.416,544.844 275.979,544.844C275.651,544.844 275.383,545.075 275.383,545.359C275.383,545.642 274.969,545.739 274.464,545.575C272.814,545.04 272.163,546.372 272.289,550.024C272.352,551.859 272.559,553.361 272.748,553.361C272.937,553.361 273.092,553.857 273.092,554.463C273.092,555.069 273.271,555.703 273.49,555.871C273.71,556.039 274.014,556.948 274.166,557.892C274.319,558.835 274.861,560.743 275.371,562.131C275.881,563.52 276.299,565.18 276.299,565.822C276.299,566.464 276.517,566.989 276.784,566.989C277.051,566.989 277.153,567.223 277.011,567.508C276.868,567.794 276.908,568.113 277.098,568.218C277.754,568.578 279.507,573.178 279.507,574.537C279.507,576.487 280.707,577.509 283.974,578.34C285.55,578.741 286.838,579.292 286.838,579.565C286.838,579.838 288.685,582.358 290.942,585.165C296.475,592.048 296.501,592.047 302.469,584.667ZM300.046,577.249C300.752,575.198 300.844,575.117 301.184,576.252C301.465,577.189 301.314,577.728 300.561,578.484C299.198,579.852 299.172,579.79 300.046,577.249ZM287.784,570.255C287.468,568.927 286.595,566.094 285.844,563.959C285.094,561.824 284.582,559.747 284.707,559.344C284.832,558.94 284.769,558.387 284.566,558.115C284.058,557.429 283.185,553.916 282.949,551.599C282.124,543.53 282.114,543.9 283.211,542.06C284.237,540.34 286.838,539.486 286.838,540.869C286.838,541.181 287.147,541.437 287.525,541.437C287.903,541.437 288.213,541.671 288.213,541.958C288.213,542.246 289.037,543.544 290.046,544.844C291.873,547.202 292.203,547.987 291.515,548.346C290.323,548.967 287.747,556.881 287.665,560.176C287.597,562.903 287.948,566.908 288.236,566.688C288.422,566.546 288.556,567.003 288.534,567.703C288.513,568.404 288.654,569.808 288.849,570.823C289.375,573.571 288.456,573.081 287.784,570.255ZM287.575,546.308C287.891,545.288 286.988,543.137 286.249,543.149C284.959,543.169 284.501,544.051 284.976,545.6C285.482,547.25 287.144,547.702 287.575,546.308ZM284.234,572.052C283.581,571.244 284.015,569.261 284.844,569.261C285.67,569.261 286.271,571.104 285.543,571.404C285.337,571.484 285.201,571.684 285.201,571.904C285.201,571.989 285.221,572.073 285.259,572.148C285.62,572.873 284.837,572.8 284.234,572.052ZM297.181,569.504C296.133,568.205 296.298,567.395 297.377,568.541C297.881,569.075 298.294,569.712 298.294,569.955C298.294,570.62 297.978,570.492 297.181,569.504ZM282.714,565.332C282.714,565.045 282.589,564.407 282.436,563.913C282.254,563.323 282.409,563.014 282.894,563.014C283.299,563.014 283.631,563.398 283.631,563.866C283.631,564.335 283.849,564.718 284.116,564.718C284.383,564.718 284.474,564.973 284.318,565.286C283.963,565.998 282.714,566.034 282.714,565.332ZM280.532,558.367C280.229,557.373 280.091,556.423 280.224,556.258C280.735,555.625 282.034,557.233 282.172,558.671C282.379,560.817 281.212,560.601 280.532,558.367ZM278.725,552.043C278.888,551.515 279.391,551.329 280.158,551.51C281.733,551.883 281.851,554.323 280.309,554.61C279.182,554.82 278.305,553.399 278.725,552.043ZM226.811,582.709C226.811,581.382 224.755,579.481 223.345,579.504L222,579.524L223.489,580.326C224.308,580.768 224.979,581.335 224.979,581.587C224.979,581.839 225.391,582.365 225.895,582.755C226.639,583.331 226.811,583.323 226.811,582.709ZM300.924,541.321C301.033,539.519 300.043,538.128 299.646,539.527C299.262,540.884 299.63,542.573 300.312,542.573C300.607,542.573 300.882,542.009 300.924,541.321Z" style="fill:rgb(234,88,12);fill-rule:nonzero;"/>
            </g>
        </g>
    </g>
</svg>
